# xmcd
#
# Track frame offsets:
# 150
# 26890
# 49102
# 68994
# 87655
# 105549
# 129187
# 142527
# 178585
# 180080
# 194040
# 216477
# 237407
# 260299
# 285318
# 311478
# 332464
#
# Disc length: 4716 seconds
#
# Revision: 0
# Processed by: cddbd v1.5.1PL0 Copyright (c) Steve Scherf et al.
# Submitted via: Audion 3.0.2 (http://www.panic.com/audion/)
#
DISCID=ef126a11
DTITLE=Backporch - Sacrilege March 20/04
DYEAR=1900
DGENRE=
TTITLE0=Black water blues
TTITLE1=Crawfish
TTITLE2=Same old blues
TTITLE3=Hold on
TTITLE4=Same old blues  - JJ
TTITLE5=Happy trail
TTITLE6=Gone
TTITLE7=Fly
TTITLE8=Christine
TTITLE9=Step it up and go
TTITLE10=Dance with me
TTITLE11=Help me
TTITLE12=When she wants good loving
TTITLE13=Clyde
TTITLE14=Face in the crowd
TTITLE15=Hank to Hendrix
TTITLE16=Oklahoma
EXTD=
EXTT0=
EXTT1=
EXTT2=
EXTT3=
EXTT4=
EXTT5=
EXTT6=
EXTT7=
EXTT8=
EXTT9=
EXTT10=
EXTT11=
EXTT12=
EXTT13=
EXTT14=
EXTT15=
EXTT16=
PLAYORDER=
